<svg xmlns="http://www.w3.org/2000/svg" version="1.1" xmlns:xlink="http://www.w3.org/1999/xlink" xmlns:svgjs="http://svgjs.dev/svgjs" width="2000" height="1247" viewBox="0 0 2000 1247"><g transform="matrix(1,0,0,1,-1.2121212121211329,0.504858299595071)"><svg viewBox="0 0 396 247" data-background-color="#0b0b10" preserveAspectRatio="xMidYMid meet" height="1247" width="2000" xmlns="http://www.w3.org/2000/svg" xmlns:xlink="http://www.w3.org/1999/xlink"><g id="tight-bounds" transform="matrix(1,0,0,1,0.2400000000000091,-0.09999999999999432)"><svg viewBox="0 0 395.52 247.2" height="247.2" width="395.52"><g><svg></svg></g><g><svg viewBox="0 0 395.52 247.2" height="247.2" width="395.52"><g transform="matrix(1,0,0,1,75.54432,62.37315479777845)"><svg viewBox="0 0 244.43135999999998 122.4536904044431" height="122.4536904044431" width="244.43135999999998"><g><svg viewBox="0 0 244.43135999999998 122.4536904044431" height="122.4536904044431" width="244.43135999999998"><g><svg viewBox="0 0 309.243812304726 154.92302645394042" height="122.4536904044431" width="244.43135999999998"><g transform="matrix(1,0,0,1,187.07092490976805,1.076713226970213)"><svg viewBox="0 0 122.17288739495797 152.7696" height="152.7696" width="122.17288739495797"><g id="textblocktransform"><svg viewBox="0 0 122.17288739495797 152.7696" height="152.7696" width="122.17288739495797" id="textblock"><g><svg viewBox="0 0 122.17288739495797 152.7696" height="152.7696" width="122.17288739495797"><g transform="matrix(1,0,0,1,0,0)"><svg width="122.17288739495797" viewBox="2.1 -35.2 28.549999999999997 35.7" height="152.7696" data-palette-color="#0016ff"><path d="M25 0.5Q21.6 0.5 19.6-4.35L19.6-4.35 16.45-11.9Q15.8-13.45 15.48-14 15.15-14.55 14.45-14.88 13.75-15.2 12.35-15.2L12.35-15.2 10.95-6.55Q10.7-5.15 9.8-4.35L9.8-4.35 9.8-4.3Q10.55-3.85 11.6-3.85L11.6-3.85Q12.25-3.85 12.88-4.13 13.5-4.4 13.75-4.4L13.75-4.4Q14.15-4.4 14.15-3.95L14.15-3.95Q14.15-3.45 13.65-2.6L13.65-2.6Q12.15 0 10.05 0L10.05 0Q9.6 0 8.95-0.15 8.3-0.3 8.05-0.35L8.05-0.35Q6.6-0.8 5.6-0.8L5.6-0.8Q4.5-0.8 3.6-0.4 2.7 0 2.5 0L2.5 0Q2.1 0 2.1-0.6L2.1-0.6Q2.1-1.8 3.7-3.2L3.7-3.2Q4.75-4.25 5.2-5.23 5.65-6.2 6.1-8.8L6.1-8.8 8.7-25.15Q8.85-26.15 9.75-27.13 10.65-28.1 11.88-28.75 13.1-29.4 14.25-29.4L14.25-29.4Q14.75-29.4 14.9-29.28 15.05-29.15 15.05-28.9L15.05-28.9Q15.05-28.6 14.55-27.65 14.05-26.7 13.75-24.8L13.75-24.8 12.65-17.65Q13.4-17.5 14.55-17.5L14.55-17.5Q18.1-17.5 19.93-19.45 21.75-21.4 21.75-25L21.75-25Q21.75-28.25 20.15-29.8 18.55-31.35 14.75-31.35L14.75-31.35Q11.7-31.35 9.05-30.3 6.4-29.25 4.35-27.3L4.35-27.3Q4.15-27.1 3.75-26.7 3.35-26.3 3.1-26.18 2.85-26.05 2.6-26.05L2.6-26.05Q2.3-26.05 2.2-26.2 2.1-26.35 2.1-26.65L2.1-26.65Q2.1-27.1 2.35-27.65L2.35-27.65Q3.15-29.65 5.03-31.38 6.9-33.1 9.75-34.15 12.6-35.2 16.2-35.2L16.2-35.2Q21.3-35.2 24.18-32.98 27.05-30.75 27.05-26.7L27.05-26.7Q27.05-23.2 24.75-20.53 22.45-17.85 18.4-16.45L18.4-16.45Q20.65-15.35 21.6-13.1L21.6-13.1 24.2-6.8Q24.8-5.3 25.35-4.83 25.9-4.35 26.65-4.35L26.65-4.35Q28.15-4.35 29.15-5.75L29.15-5.75Q29.35-6.05 29.55-6.3 29.75-6.55 30-6.55L30-6.55Q30.65-6.55 30.65-5.35L30.65-5.35Q30.65-3.85 29.9-2.5 29.15-1.15 27.85-0.33 26.55 0.5 25 0.5L25 0.5Z" opacity="1" transform="matrix(1,0,0,1,0,0)" fill="#0016ff" class="wordmark-text-0" data-fill-palette-color="primary" id="text-0"></path></svg></g></svg></g></svg></g></svg></g><g><svg viewBox="0 0 151.00568882016805 154.92302645394042" height="154.92302645394042" width="151.00568882016805"><g><svg xmlns="http://www.w3.org/2000/svg" xmlns:xlink="http://www.w3.org/1999/xlink" version="1.1" x="0" y="0" viewBox="5.637740379986418 5.999 87.72526144487975 90.001" enable-background="new 0 0 100 100" xml:space="preserve" height="154.92302645394042" width="151.00568882016805" class="icon-icon-0" data-fill-palette-color="accent" id="icon-0"><g fill="#10e0ea" data-fill-palette-color="accent"><path d="M58.203 96H40.796c-2.211 0-4.011-1.8-4.011-4.011v-7.236c0-0.358-0.744-0.91-1.94-1.438l-0.194-0.09c-2.285-1.021-4.509-2.359-6.563-3.955-0.524-0.407-1.227-0.518-1.633-0.281l-6.016 3.473c-2.092 1.207-4.493 0.42-5.558-1.424L6.177 65.962c-0.536-0.928-0.678-2.008-0.401-3.043 0.278-1.036 0.941-1.901 1.87-2.437l0.938 1.286L7.787 60.4l0.414-0.238 0.912 1.301L8.32 60.094l4.765-2.75c1.446-0.84 1.446-0.84 1.32-1.739-0.201-1.366-0.29-2.776-0.29-4.503v-0.203c0-1.726 0.089-3.136 0.281-4.435l0.013-0.094c0.122-0.874 0.122-0.874-1.377-1.743l-4.709-2.719 0.696-1.425-0.79 1.371-0.44-0.254 0.699-1.423-0.843 1.34c-1.914-1.105-2.573-3.563-1.467-5.478l8.704-15.076c0.714-1.238 2.046-2.006 3.476-2.006 0.701 0 1.394 0.186 2.003 0.537l6.111 3.528c0.409 0.223 1.1 0.11 1.617-0.292 2.052-1.594 4.277-2.933 6.612-3.979l0.145-0.066c1.196-0.528 1.94-1.079 1.94-1.438v-7.236c0-2.212 1.8-4.012 4.011-4.012h17.407c2.212 0 4.011 1.8 4.011 4.012v7.236c0 0.358 0.745 0.909 1.942 1.438l0.171 0.079c2.323 1.042 4.538 2.376 6.586 3.966 0.516 0.401 1.205 0.513 1.616 0.292l6.083-3.512c2.022-1.147 4.446-0.383 5.508 1.451l8.703 15.077c1.104 1.916 0.446 4.373-1.469 5.479l-4.01 2.316-0.901-1.308 0.794 1.369-1.223 0.707c-1.544 0.895-1.544 0.895-1.418 1.795l0.016 0.116c0.188 1.314 0.272 2.698 0.272 4.387L84.884 51l0.001 0.102c0 1.72-0.088 3.123-0.277 4.413l-0.001 0.016c-0.136 0.975-0.136 0.975 1.362 1.844l1.269 0.732-0.692 1.426 0.794-1.368 3.341 1.929-0.698 1.425 0.79-1.372 0.605 0.351c0.905 0.521 1.569 1.387 1.846 2.423 0.278 1.035 0.136 2.115-0.399 3.043L84.12 81.037c-0.715 1.238-2.048 2.006-3.478 2.006-0.701 0-1.394-0.186-2.003-0.537l-6.084-3.513c-0.436-0.252-1.119-0.13-1.642 0.275-2.041 1.585-4.247 2.915-6.558 3.954l-0.227 0.103c-1.171 0.518-1.916 1.069-1.916 1.428v7.236C62.214 94.2 60.415 96 58.203 96zM36.123 80.419c1.643 0.727 3.827 1.965 3.827 4.334v7.236c0 0.466 0.379 0.847 0.846 0.847h17.407c0.467 0 0.848-0.381 0.848-0.847v-7.236c0-2.369 2.185-3.607 3.827-4.334l0.129-0.06c2.102-0.939 4.107-2.147 5.965-3.589 1.52-1.182 3.647-1.392 5.153-0.525l2.512 1.449-0.679 1.437 0.785-1.373 1.374 0.793-0.645 1.454 0.791-1.37 1.941 1.121c0.173 0.092 0.303 0.123 0.438 0.123 0.304 0 0.586-0.163 0.736-0.425l8.703-15.074c0.113-0.196 0.144-0.424 0.084-0.643-0.058-0.218-0.197-0.4-0.394-0.514l-5.343-3.085c-2.381-1.38-3.312-2.363-2.978-4.897l0.016-0.122c0.174-1.184 0.253-2.446 0.253-4.018L81.72 51l0.001-0.102c0-1.571-0.079-2.834-0.247-3.974l-0.018-0.145c-0.353-2.541 0.576-3.529 2.926-4.891l1.577-0.911 0.891 1.312-0.792-1.369 3.04-1.755 0.884 1.316-0.789-1.371 0.523-0.303c0.46-0.266 0.6-0.785 0.366-1.19l-8.703-15.075c-0.227-0.393-0.754-0.542-1.157-0.31l-3.479 2.008-0.84-1.342 0.75 1.394-2.604 1.5v0c-1.617 0.865-3.599 0.585-5.077-0.565-1.854-1.439-3.859-2.646-5.96-3.586l-0.085-0.041c-1.696-0.75-3.876-1.988-3.876-4.354v-7.236c0-0.467-0.381-0.847-0.848-0.847H40.796c-0.467 0-0.846 0.379-0.846 0.847v7.236c0 2.369-2.184 3.607-3.827 4.333l-0.75-1.397 0.655 1.44c-2.139 0.958-4.146 2.166-5.999 3.605-1.52 1.182-3.648 1.392-5.153 0.526l-2.513-1.451 0.679-1.436-0.785 1.374-3.413-1.971c-0.197-0.114-0.338-0.152-0.487-0.152-0.303 0-0.584 0.163-0.735 0.424L8.917 37.62c-0.113 0.196-0.143 0.425-0.084 0.643s0.199 0.4 0.394 0.514l5.34 3.083c2.408 1.396 3.334 2.386 2.971 4.977l-0.014 0.099c-0.167 1.133-0.245 2.396-0.245 3.964l0.001 0.125c-0.001 1.646 0.077 2.909 0.245 4.052l0.014 0.107c0.362 2.573-0.565 3.562-2.921 4.929L9.285 63.19c-0.253 0.146-0.393 0.329-0.452 0.547-0.059 0.219-0.029 0.446 0.084 0.642l8.705 15.076c0.228 0.396 0.756 0.541 1.157 0.311l3.479-2.009 0.841 1.341-0.73-1.405 2.578-1.485c0.553-0.32 1.282-0.511 2.039-0.511 1.072 0 2.153 0.382 3.044 1.074 1.844 1.434 3.839 2.636 5.931 3.574l0.087 0.041-0.129 0.271-0.434 1.211L36.123 80.419z" fill="#10e0ea" data-fill-palette-color="accent"></path></g><g fill="#10e0ea" data-fill-palette-color="accent"><path d="M49.5 78.996c-15.382 0-27.896-12.513-27.896-27.895 0-15.382 12.514-27.896 27.896-27.896s27.896 12.514 27.896 27.896C77.396 66.483 64.882 78.996 49.5 78.996zM49.5 26.37c-13.637 0-24.731 11.095-24.731 24.732 0 13.637 11.094 24.731 24.731 24.731 13.638 0 24.732-11.095 24.732-24.731C74.232 37.464 63.138 26.37 49.5 26.37z" fill="#10e0ea" data-fill-palette-color="accent"></path></g><path fill-rule="evenodd" clip-rule="evenodd" d="M60.46 62.594l-2.454-2.454 8.588-8.587-8.588-8.589 2.454-2.454 11.042 11.043L60.46 62.594zM44.735 61.963l7.537-22.557h3.471l-7.537 22.557H44.735zM39.529 61.726L28.487 50.685l11.042-11.042 2.454 2.454-8.588 8.588 8.588 8.588L39.529 61.726z" fill="#10e0ea" data-fill-palette-color="accent"></path></svg></g></svg></g></svg></g></svg></g></svg></g><g><path d="M0 123.6c0-68.262 55.338-123.6 123.6-123.6 39.842 0 75.28 18.851 97.884 48.12h-6.977c-21.673-26.074-54.352-42.675-90.907-42.675-65.255 0-118.155 52.9-118.155 118.155 0 65.255 52.9 118.155 118.155 118.155 36.556 0 69.234-16.601 90.907-42.675h6.977c-22.603 29.269-58.042 48.12-97.884 48.12-68.262 0-123.6-55.338-123.6-123.6z" fill="#0012ff" stroke="transparent" data-fill-palette-color="tertiary"></path></g></svg></g><defs></defs></svg><rect width="395.52" height="247.2" fill="none" stroke="none" visibility="hidden"></rect></g></svg></g></svg>